<svg width="41" height="41" viewBox="0 0 41 41" fill="none" xmlns="http://www.w3.org/2000/svg">
<mask id="mask0_32_531" style="mask-type:alpha" maskUnits="userSpaceOnUse" x="0" y="0" width="41" height="41">
<rect x="0.666687" y="0.652832" width="40" height="40" fill="#D9D9D9"/>
</mask>
<g mask="url(#mask0_32_531)">
<path d="M20.0971 22.5974H27.3888C28.0799 22.5974 28.6647 22.3588 29.1433 21.8816C29.622 21.4041 29.8613 20.8207 29.8613 20.1316C29.8613 19.4421 29.622 18.8496 29.1433 18.3541C28.6647 17.8588 28.0799 17.6111 27.3888 17.6111H27.0279L26.9721 17.3332C26.8518 16.463 26.4604 15.7338 25.7979 15.1457C25.1354 14.558 24.3486 14.2641 23.4375 14.2641C22.72 14.2641 22.0603 14.4468 21.4583 14.8124C20.8564 15.1782 20.4304 15.6806 20.1804 16.3195L20.125 16.5141H19.9029C19.0879 16.5324 18.405 16.8402 17.8542 17.4374C17.3033 18.0346 17.0279 18.7393 17.0279 19.5516C17.0279 20.3638 17.3265 21.0745 17.9238 21.6836C18.521 22.2928 19.2454 22.5974 20.0971 22.5974ZM5.11126 35.6528C4.36126 35.6528 3.7107 35.3774 3.15959 34.8266C2.60876 34.2754 2.33334 33.6249 2.33334 32.8749V9.81948H5.11126V32.8749H34.8333V35.6528H5.11126ZM10.6667 30.0974C9.91668 30.0974 9.26626 29.8218 8.71543 29.2707C8.16432 28.7199 7.88876 28.0695 7.88876 27.3195V6.76406C7.88876 6.01406 8.16432 5.36351 8.71543 4.8124C9.26626 4.26156 9.91668 3.98615 10.6667 3.98615H20.6667L23.4446 6.76406H36.2221C36.9721 6.76406 37.6226 7.03948 38.1738 7.59031C38.7246 8.14115 39 8.79156 39 9.54156V27.3195C39 28.0695 38.7246 28.7199 38.1738 29.2707C37.6226 29.8218 36.9721 30.0974 36.2221 30.0974H10.6667ZM10.6667 27.3195H36.2221V9.54156H22.2917L19.5138 6.76406H10.6667V27.3195Z" fill="#666666"/>
</g>
</svg>
