<svg width="80" height="80" viewBox="0 0 80 80" fill="none" xmlns="http://www.w3.org/2000/svg">
<path d="M40 0C17.92 0 0 17.92 0 40C0 62.08 17.92 80 40 80C62.08 80 80 62.08 80 40C80 17.92 62.08 0 40 0ZM43.52 63.04V68H36.52V62.84C33.56 62.12 26.96 59.76 24.44 51L31.04 48.32C31.28 49.2 33.36 56.68 40.64 56.68C44.36 56.68 48.56 54.76 48.56 50.24C48.56 46.4 45.76 44.4 39.44 42.12C35.04 40.56 26.04 38 26.04 28.88C26.04 28.48 26.08 19.28 36.52 17.04V12H43.52V16.96C50.88 18.24 53.56 24.12 54.16 25.88L47.84 28.56C47.4 27.16 45.48 23.2 40.24 23.2C37.44 23.2 33 24.68 33 28.76C33 32.56 36.44 34 43.56 36.36C53.16 39.68 55.6 44.56 55.6 50.16C55.6 60.68 45.6 62.68 43.52 63.04Z" fill="#EBC351"/>
</svg>
